<svg width="14" height="14" viewBox="0 0 14 14" fill="none" xmlns="http://www.w3.org/2000/svg">
<path d="M11.2326 0.809021H2.3058C1.29793 0.809021 0.530029 1.57698 0.530029 2.58493V11.5125C0.530029 12.5204 1.29793 13.2884 2.3058 13.2884H11.2326C12.2405 13.2884 13.0084 12.5204 13.0084 11.5125V2.58493C13.0084 1.57698 12.2405 0.809021 11.2326 0.809021ZM6.76922 10.7925C8.83296 10.7925 10.5127 9.16061 10.5127 7.19271C10.5127 6.85672 10.4647 6.47274 10.3688 6.18476H11.4246V11.2725C11.4246 11.5125 11.2326 11.7525 10.9447 11.7525H2.59376C2.3538 11.7525 2.11383 11.5605 2.11383 11.2725V6.13676H3.21768C3.1217 6.47274 3.0737 6.80873 3.0737 7.14471C3.02571 9.16061 4.70549 10.7925 6.76922 10.7925ZM6.76922 9.3526C5.4254 9.3526 4.36953 8.29666 4.36953 7.00072C4.36953 5.70478 5.4254 4.64883 6.76922 4.64883C8.11305 4.64883 9.16891 5.70478 9.16891 7.00072C9.16891 8.34465 8.11305 9.3526 6.76922 9.3526ZM11.3766 4.21685C11.3766 4.50484 11.1367 4.74483 10.8487 4.74483H9.50487C9.21691 4.74483 8.97694 4.50484 8.97694 4.21685V2.92092C8.97694 2.63293 9.21691 2.39294 9.50487 2.39294H10.8487C11.1367 2.39294 11.3766 2.63293 11.3766 2.92092V4.21685Z" fill="#BDBDBD"/>
</svg>
