<svg width="130" height="82" viewBox="0 0 130 82" fill="none" xmlns="http://www.w3.org/2000/svg">
<path d="M83.3435 12.7998C83.0749 12.173 82.7615 11.591 82.4481 11.0089L42.824 29.0972C43.0478 29.724 43.2717 30.3508 43.5851 30.9329C43.8537 31.5597 44.1672 32.1418 44.4806 32.7238L84.1047 14.6803C83.8808 14.0087 83.6122 13.3819 83.3435 12.7998Z" fill="#474747"/>
<path d="M80.7467 8.45685C79.896 7.33752 78.911 6.30775 77.8812 5.41229C71.613 -0.0500196 62.4793 -1.70662 54.4201 1.96476C46.361 5.63615 41.6151 13.6057 41.6151 21.9335L38.1675 23.5006C36.69 22.1126 34.4962 21.7097 32.5261 22.6051C29.9293 23.7692 28.81 26.8585 29.9741 29.4106C31.1382 32.0074 34.2275 33.1268 36.7796 31.9627C38.7496 31.0672 39.8689 29.142 39.7794 27.1272L80.7467 8.45685ZM46.7192 15.5758C48.3758 11.0985 51.689 7.56139 56.032 5.5466C60.375 3.53182 65.2552 3.3975 69.7325 5.0541C71.21 5.59138 72.5532 6.35252 73.8068 7.20321L45.6446 20.0531C45.8237 18.5755 46.1371 17.0533 46.7192 15.5758ZM35.5259 29.2315C34.4514 29.724 33.1977 29.2315 32.7052 28.2017C32.2127 27.1272 32.7052 25.8735 33.735 25.381C34.8096 24.8885 36.0632 25.381 36.5557 26.4108C37.0482 27.4854 36.6005 28.739 35.5259 29.2315Z" fill="#474747"/>
<path d="M90.1042 11.7253C88.1342 12.6207 87.0149 14.546 87.1044 16.5608L46.1819 35.2311C47.0326 36.3504 48.0176 37.3802 49.0474 38.2757C55.3156 43.738 64.4493 45.3946 72.5084 41.7232C80.5676 38.0518 85.3135 30.0822 85.3135 21.7544L88.761 20.1874C90.2385 21.5753 92.4324 21.9783 94.4024 21.0828C96.9992 19.9187 98.1186 16.8294 96.9545 14.2773C95.7456 11.6805 92.701 10.5612 90.1042 11.7253ZM80.2093 28.1122C78.5527 32.5895 75.2395 36.1266 70.8966 38.1413C66.5536 40.1113 61.6733 40.2904 57.196 38.6338C55.7185 38.0966 54.3753 37.3354 53.1217 36.4847L81.2839 23.6349C81.1048 25.1124 80.7466 26.6347 80.2093 28.1122ZM93.1488 18.3517C92.0742 18.8442 90.8206 18.3517 90.3281 17.3219C89.8356 16.2473 90.3281 14.9937 91.3578 14.5012C92.4324 14.0087 93.686 14.5012 94.1785 15.531C94.671 16.6055 94.1785 17.8592 93.1488 18.3517Z" fill="#474747"/>
<path d="M13.8549 49.173V52.11H8.6194V67.4333H5.23549V52.11H0V49.173H13.8549Z" fill="#474747"/>
<path d="M18.931 54.0254C23.0003 54.0254 25.0349 56.1026 25.0349 60.2569C25.0349 60.8102 24.9966 61.3636 24.9199 61.9169H16.0196C16.0196 63.8068 17.4072 64.7518 20.1825 64.7518C21.536 64.7518 22.8896 64.6241 24.2432 64.3687V67.0503C23.0598 67.3057 21.6212 67.4333 19.9271 67.4333C15.0661 67.4333 12.6357 65.1476 12.6357 60.5761C12.6357 56.209 14.7341 54.0254 18.931 54.0254ZM16.0196 59.5673H21.7403V59.4652C21.7403 57.6094 20.8039 56.6814 18.931 56.6814C17.1433 56.6814 16.1728 57.6434 16.0196 59.5673Z" fill="#474747"/>
<path d="M37.2108 67.0503C36.1041 67.3057 34.9549 67.4333 33.763 67.4333C28.9958 67.4333 26.6121 65.1136 26.6121 60.474C26.6121 56.1749 28.9958 54.0254 33.763 54.0254C34.9549 54.0254 36.1041 54.1531 37.2108 54.4085V57.0901C36.1041 56.8347 35.04 56.707 34.0184 56.707C31.3368 56.707 29.996 57.9626 29.996 60.474C29.996 63.3258 31.3368 64.7518 34.0184 64.7518C35.04 64.7518 36.1041 64.6241 37.2108 64.3687V67.0503Z" fill="#474747"/>
<path d="M39.707 67.4333V49.173H43.0909V55.7365C44.1465 54.5958 45.4959 54.0254 47.1389 54.0254C50.3142 54.0254 51.9019 55.6769 51.9019 58.98V67.4333H48.518V58.98C48.518 57.4987 47.7816 56.7581 46.3088 56.7581C45.2107 56.7581 44.138 57.1965 43.0909 58.0733V67.4333H39.707ZM55.4263 67.4333V49.173H63.5987C67.3274 49.173 69.1918 50.8884 69.1918 54.3191C69.1918 58.0393 66.6421 60.291 61.5428 61.0741L61.0576 58.0605C64.1223 57.5072 65.6546 56.2941 65.6546 54.4212C65.6546 52.9059 64.897 52.1483 63.3817 52.1483H58.8102V67.4333H55.4263ZM74.5039 49.173V67.4333H71.12V49.173H74.5039ZM77.0705 63.2577C77.0705 60.5932 79.0115 59.2609 82.8934 59.2609C83.8043 59.2609 84.7152 59.346 85.6261 59.5163V58.5075C85.6261 57.3071 84.762 56.707 83.0339 56.707C81.5697 56.707 79.9437 56.9198 78.1559 57.3455V54.6639C79.9437 54.2382 81.5697 54.0254 83.0339 54.0254C87.018 54.0254 89.01 55.4981 89.01 58.4436V67.4333H87.0435L85.8432 66.233C84.6769 67.0332 83.3914 67.4333 81.9868 67.4333C78.7093 67.4333 77.0705 66.0415 77.0705 63.2577ZM85.6261 61.8148C84.7748 61.6445 83.8639 61.5594 82.8934 61.5594C81.2674 61.5594 80.4545 62.1127 80.4545 63.2194C80.4545 64.4112 81.1355 65.0071 82.4976 65.0071C83.6213 65.0071 84.6641 64.6581 85.6261 63.96V61.8148ZM92.2151 67.4333V54.0254H94.8329L95.2543 55.9919C96.5397 54.6809 98.004 54.0254 99.647 54.0254C102.822 54.0254 104.41 55.6769 104.41 58.98V67.4333H101.026V58.98C101.026 57.4987 100.29 56.7581 98.817 56.7581C97.7188 56.7581 96.6462 57.1965 95.5991 58.0733V67.4333H92.2151ZM113.272 54.0254C117.341 54.0254 119.376 56.1026 119.376 60.2569C119.376 60.8102 119.338 61.3636 119.261 61.9169H110.361C110.361 63.8068 111.748 64.7518 114.523 64.7518C115.877 64.7518 117.231 64.6241 118.584 64.3687V67.0503C117.401 67.3057 115.962 67.4333 114.268 67.4333C109.407 67.4333 106.977 65.1476 106.977 60.5761C106.977 56.209 109.075 54.0254 113.272 54.0254ZM110.361 59.5673H116.081V59.4652C116.081 57.6094 115.145 56.6814 113.272 56.6814C111.484 56.6814 110.514 57.6434 110.361 59.5673ZM121.725 51.8546H124.228L124.739 54.0254H128.11V56.707H125.109V62.8746C125.109 64.1261 125.65 64.7518 126.731 64.7518H128.11V67.4333H125.097C122.849 67.4333 121.725 66.2288 121.725 63.8196V51.8546Z" fill="#474747"/>
<path d="M28.392 79.3305C28.0497 79.4095 27.6812 79.449 27.2863 79.449C25.812 79.449 25.0748 78.7316 25.0748 77.2968C25.0748 75.9673 25.812 75.3025 27.2863 75.3025C27.6812 75.3025 28.0497 75.342 28.392 75.421V76.0134C28.0497 75.9344 27.668 75.8949 27.2468 75.8949C26.2859 75.8949 25.8054 76.3622 25.8054 77.2968C25.8054 78.3367 26.2859 78.8566 27.2468 78.8566C27.668 78.8566 28.0497 78.8171 28.392 78.7382V79.3305ZM29.8571 77.36C29.8571 78.3577 30.2717 78.8566 31.101 78.8566C31.9303 78.8566 32.3449 78.3577 32.3449 77.36C32.3449 76.3832 31.9303 75.8949 31.101 75.8949C30.2717 75.8949 29.8571 76.3832 29.8571 77.36ZM29.1265 77.3758C29.1265 75.9936 29.7847 75.3025 31.101 75.3025C32.4173 75.3025 33.0755 75.9936 33.0755 77.3758C33.0755 78.7553 32.4173 79.445 31.101 79.445C29.7899 79.445 29.1318 78.7553 29.1265 77.3758ZM34.0627 79.449V75.3025H34.5563L34.6788 75.8238C35.0763 75.4763 35.5094 75.3025 35.978 75.3025C36.5782 75.3025 36.9876 75.4921 37.2061 75.8712C37.6563 75.4921 38.1131 75.3025 38.5764 75.3025C39.5294 75.3025 40.0059 75.8278 40.0059 76.8782V79.449H39.2754V76.8387C39.2754 76.22 39.0148 75.9107 38.4935 75.9107C38.1039 75.9107 37.7392 76.0897 37.3996 76.4477V79.449H36.6691V76.8505C36.6691 76.224 36.4111 75.9107 35.8951 75.9107C35.4844 75.9107 35.1171 76.0897 34.7933 76.4477V79.449H34.0627ZM41.9252 78.6039C42.2121 78.7461 42.532 78.8171 42.8848 78.8171C43.7456 78.8171 44.1761 78.2998 44.1761 77.2652C44.1761 76.3622 43.7483 75.9107 42.8927 75.9107C42.5241 75.9107 42.2016 75.9423 41.9252 76.0055V78.6039ZM41.1946 75.4723C41.7448 75.3591 42.3135 75.3025 42.9006 75.3025C44.23 75.3025 44.8948 75.9594 44.8948 77.2731C44.8948 78.7237 44.2261 79.449 42.8887 79.449C42.557 79.449 42.2358 79.3832 41.9252 79.2515V80.9496H41.1946V75.4723ZM45.6885 78.1971C45.6885 77.3468 46.2493 76.9216 47.3708 76.9216C47.7315 76.9216 48.0922 76.9479 48.4528 77.0006V76.6097C48.4528 76.1331 48.0803 75.8949 47.3353 75.8949C46.9088 75.8949 46.4718 75.9607 46.0242 76.0923V75.5C46.4718 75.3684 46.9088 75.3025 47.3353 75.3025C48.5673 75.3025 49.1834 75.7317 49.1834 76.5899V79.449H48.7727L48.52 79.0383C48.1066 79.3121 47.6565 79.449 47.1694 79.449C46.1822 79.449 45.6885 79.0317 45.6885 78.1971ZM47.3708 77.514C46.7363 77.514 46.4191 77.7377 46.4191 78.1853C46.4191 78.6329 46.6692 78.8566 47.1694 78.8566C47.6749 78.8566 48.1027 78.7224 48.4528 78.4538V77.593C48.0922 77.5403 47.7315 77.514 47.3708 77.514ZM50.372 79.449V75.3025H50.8657L50.996 75.8317C51.4198 75.4789 51.8858 75.3025 52.3939 75.3025C53.4286 75.3025 53.9459 75.8172 53.9459 76.8466V79.449H53.2153V76.8347C53.2153 76.2187 52.9086 75.9107 52.2952 75.9107C51.8766 75.9107 51.4791 76.0858 51.1026 76.4359V79.449H50.372ZM54.6409 75.3025H55.4346L56.6075 78.5407L57.8198 75.3025H58.5938L56.8721 79.5714C56.5667 80.3243 56.1086 80.7943 55.4978 80.9812L55.2174 80.4639C55.6808 80.2611 56.0178 79.9308 56.2284 79.4727L54.6409 75.3025ZM61.216 79.2515V78.6197C61.703 78.7776 62.1953 78.8566 62.6929 78.8566C63.3537 78.8566 63.6841 78.6592 63.6841 78.2643C63.6841 77.8957 63.4537 77.7114 62.993 77.7114H62.4007C61.5055 77.7114 61.058 77.3034 61.058 76.4872C61.058 75.6974 61.6332 75.3025 62.7837 75.3025C63.2786 75.3025 63.7696 75.3684 64.2567 75.5V76.1318C63.7696 75.9739 63.2786 75.8949 62.7837 75.8949C62.0939 75.8949 61.7491 76.0923 61.7491 76.4872C61.7491 76.8558 61.9663 77.0401 62.4007 77.0401H62.993C63.9408 77.0401 64.4146 77.4482 64.4146 78.2643C64.4146 79.0541 63.8407 79.449 62.6929 79.449C62.1953 79.449 61.703 79.3832 61.216 79.2515ZM66.1719 73.8019V79.449H65.4414V73.8019H66.1719ZM67.9332 77.36C67.9332 78.3577 68.3478 78.8566 69.1771 78.8566C70.0064 78.8566 70.421 78.3577 70.421 77.36C70.421 76.3832 70.0064 75.8949 69.1771 75.8949C68.3478 75.8949 67.9332 76.3832 67.9332 77.36ZM67.2026 77.3758C67.2026 75.9936 67.8608 75.3025 69.1771 75.3025C70.4934 75.3025 71.1516 75.9936 71.1516 77.3758C71.1516 78.7553 70.4934 79.445 69.1771 79.445C67.866 79.445 67.2079 78.7553 67.2026 77.3758ZM74.911 76.0055C74.6609 75.9423 74.3516 75.9107 73.983 75.9107C73.1011 75.9107 72.6601 76.3885 72.6601 77.3442C72.6601 78.3261 73.0774 78.8171 73.9119 78.8171C74.2911 78.8171 74.6241 78.7461 74.911 78.6039V76.0055ZM75.6416 79.449C75.6416 80.4494 75.0058 80.9496 73.7342 80.9496C73.2235 80.9496 72.7707 80.8838 72.3758 80.7521V80.1598C72.7786 80.2914 73.234 80.3572 73.7421 80.3572C74.5214 80.3572 74.911 80.0545 74.911 79.449V79.2515C74.6004 79.3832 74.266 79.449 73.908 79.449C72.5969 79.449 71.9414 78.75 71.9414 77.3521C71.9414 75.9857 72.6325 75.3025 74.0146 75.3025C74.5754 75.3025 75.1177 75.3591 75.6416 75.4723V79.449ZM76.6328 78.1971C76.6328 77.3468 77.1936 76.9216 78.3151 76.9216C78.6757 76.9216 79.0364 76.9479 79.3971 77.0006V76.6097C79.3971 76.1331 79.0246 75.8949 78.2795 75.8949C77.853 75.8949 77.416 75.9607 76.9685 76.0923V75.5C77.416 75.3684 77.853 75.3025 78.2795 75.3025C79.5116 75.3025 80.1277 75.7317 80.1277 76.5899V79.449H79.717L79.4642 79.0383C79.0509 79.3121 78.6007 79.449 78.1137 79.449C77.1264 79.449 76.6328 79.0317 76.6328 78.1971ZM78.3151 77.514C77.6806 77.514 77.3634 77.7377 77.3634 78.1853C77.3634 78.6329 77.6135 78.8566 78.1137 78.8566C78.6191 78.8566 79.0469 78.7224 79.3971 78.4538V77.593C79.0364 77.5403 78.6757 77.514 78.3151 77.514ZM81.3163 79.449V75.3025H81.8099L81.9402 75.8317C82.3641 75.4789 82.8301 75.3025 83.3382 75.3025C84.3728 75.3025 84.8901 75.8172 84.8901 76.8466V79.449H84.1596V76.8347C84.1596 76.2187 83.8529 75.9107 83.2395 75.9107C82.8209 75.9107 82.4233 76.0858 82.0469 76.4359V79.449H81.3163ZM88.0533 79.449V73.8019H88.7838V75.7527C89.1366 75.4526 89.567 75.3025 90.0751 75.3025C91.1098 75.3025 91.6271 75.8172 91.6271 76.8466V79.449H90.8965V76.8347C90.8965 76.2187 90.5898 75.9107 89.9764 75.9107C89.5578 75.9107 89.1603 76.0858 88.7838 76.4359V79.449H88.0533ZM94.5257 75.3025C95.7051 75.3025 96.2948 75.8857 96.2948 77.0519C96.2948 77.2178 96.283 77.3955 96.2593 77.5851H93.3489C93.3489 78.4328 93.8438 78.8566 94.8337 78.8566C95.3049 78.8566 95.7235 78.804 96.0895 78.6987V79.291C95.7235 79.3963 95.2786 79.449 94.7547 79.449C93.3304 79.449 92.6183 78.7421 92.6183 77.3284C92.6183 75.9778 93.2541 75.3025 94.5257 75.3025ZM93.3489 76.9769H95.5919C95.5761 76.2503 95.2207 75.887 94.5257 75.887C93.7885 75.887 93.3962 76.2503 93.3489 76.9769ZM97.2781 79.449V75.3025H97.7717L97.902 75.8317C98.2653 75.4789 98.7024 75.3025 99.2131 75.3025V75.9107C98.7182 75.9107 98.3167 76.0858 98.0087 76.4359V79.449H97.2781ZM101.658 75.3025C102.837 75.3025 103.427 75.8857 103.427 77.0519C103.427 77.2178 103.415 77.3955 103.391 77.5851H100.481C100.481 78.4328 100.976 78.8566 101.966 78.8566C102.437 78.8566 102.855 78.804 103.221 78.6987V79.291C102.855 79.3963 102.41 79.449 101.887 79.449C100.462 79.449 99.7502 78.7421 99.7502 77.3284C99.7502 75.9778 100.386 75.3025 101.658 75.3025ZM100.481 76.9769H102.724C102.708 76.2503 102.353 75.887 101.658 75.887C100.92 75.887 100.528 76.2503 100.481 76.9769Z" fill="#474747"/>
</svg>
