<svg width="33" height="33" viewBox="0 0 33 33" fill="none" xmlns="http://www.w3.org/2000/svg">
<g filter="url(#filter0_d_14_467)">
<path d="M21.5 9C22.8807 9 24 10.1193 24 11.5V13.5C24 19.299 19.299 24 13.5 24H11.5C10.1193 24 9 22.8807 9 21.5V20.118C9 19.5499 9.321 19.0305 9.82918 18.7764L12.2451 17.5684C13.0616 17.1602 14.0503 17.5697 14.339 18.4357L14.6367 19.329C14.7499 19.6684 15.098 19.8705 15.4489 19.8003C17.6447 19.3612 19.3612 17.6447 19.8003 15.4489C19.8705 15.098 19.6684 14.7499 19.329 14.6367L18.2204 14.2672C17.4768 14.0193 17.0494 13.2408 17.2395 12.4804L17.8256 10.1362C17.9925 9.46845 18.5925 9 19.2808 9H21.5Z" fill="#478ECC"/>
</g>
<defs>
<filter id="filter0_d_14_467" x="0" y="0" width="33" height="33" filterUnits="userSpaceOnUse" color-interpolation-filters="sRGB">
<feFlood flood-opacity="0" result="BackgroundImageFix"/>
<feColorMatrix in="SourceAlpha" type="matrix" values="0 0 0 0 0 0 0 0 0 0 0 0 0 0 0 0 0 0 127 0" result="hardAlpha"/>
<feOffset/>
<feGaussianBlur stdDeviation="4.5"/>
<feComposite in2="hardAlpha" operator="out"/>
<feColorMatrix type="matrix" values="0 0 0 0 0.278431 0 0 0 0 0.556863 0 0 0 0 0.8 0 0 0 0.84 0"/>
<feBlend mode="normal" in2="BackgroundImageFix" result="effect1_dropShadow_14_467"/>
<feBlend mode="normal" in="SourceGraphic" in2="effect1_dropShadow_14_467" result="shape"/>
</filter>
</defs>
</svg>
