<svg width="16" height="14" viewBox="0 0 16 14" fill="none" xmlns="http://www.w3.org/2000/svg">
<path d="M0.863563 6.95622L4.23867 8.21484L5.55438 12.4483C5.61159 12.7344 5.95482 12.7916 6.18364 12.62L8.0714 11.0753C8.24302 10.9037 8.52905 10.9037 8.75787 11.0753L12.133 13.5353C12.3618 13.707 12.705 13.5925 12.7622 13.3065L15.2792 1.29247C15.3364 1.00642 15.0504 0.720373 14.7644 0.834793L0.863563 6.2125C0.520333 6.32692 0.520333 6.8418 0.863563 6.95622ZM5.38277 7.58553L12.0185 3.52364C12.133 3.46643 12.2474 3.63806 12.133 3.69527L6.69848 8.78693C6.52687 8.95856 6.35525 9.1874 6.35525 9.47345L6.18364 10.8465C6.18364 11.0181 5.89761 11.0753 5.84041 10.8465L5.15394 8.32925C4.98233 8.04321 5.09675 7.69995 5.38277 7.58553Z" fill="#BDBDBD"/>
</svg>
