<svg width="16" height="14" viewBox="0 0 16 14" fill="none" xmlns="http://www.w3.org/2000/svg">
<path d="M0.863433 6.95572L4.23844 8.2143L5.55411 12.4477C5.61131 12.7337 5.95453 12.7909 6.18334 12.6193L8.07104 11.0747C8.24265 10.9031 8.52868 10.9031 8.75749 11.0747L12.1325 13.5346C12.3613 13.7062 12.7045 13.5918 12.7617 13.3058L15.2787 1.29215C15.3359 1.00611 15.0498 0.720071 14.7638 0.834487L0.863433 6.21202C0.520213 6.32644 0.520213 6.84131 0.863433 6.95572ZM5.3825 7.58501L12.0181 3.52325C12.1325 3.46605 12.2469 3.63767 12.1325 3.69488L6.69817 8.78638C6.52656 8.958 6.35495 9.18683 6.35495 9.47287L6.18334 10.8459C6.18334 11.0175 5.89732 11.0747 5.84012 10.8459L5.15368 8.32871C4.98207 8.04267 5.09649 7.69942 5.3825 7.58501Z" fill="white"/>
</svg>
