<svg width="16" height="10" viewBox="0 0 16 10" fill="none" xmlns="http://www.w3.org/2000/svg">
<path d="M15.2394 8.43731C15.2394 8.37636 15.1784 8.37636 15.1784 8.31542C14.9347 7.82785 14.3862 7.2184 13.6549 6.548C13.2893 6.24327 13.1064 5.99948 12.9845 5.87759C12.8017 5.63381 12.8017 5.45098 12.8627 5.20719C12.9236 5.02436 13.1674 4.71962 13.594 4.17111C13.8377 3.86638 13.9596 3.68355 14.1424 3.50071C15.0565 2.2818 15.4831 1.4895 15.3612 1.12383L15.3003 1.06289C15.2394 1.00194 15.1784 0.940997 15.0565 0.940997C14.9346 0.880052 14.7518 0.880052 14.569 0.940997H12.2533C12.1923 0.940997 12.1923 0.940997 12.0704 0.940997C12.0095 0.940997 11.9486 0.940997 11.9486 0.940997H11.8876H11.8267L11.7657 1.00194C11.7048 1.06288 11.7048 1.06288 11.7048 1.12383C11.461 1.79423 11.1563 2.34274 10.8516 2.9522C10.6688 3.25692 10.486 3.56166 10.3032 3.80544C10.1203 4.04922 9.99845 4.23206 9.87657 4.35395C9.75469 4.47584 9.63281 4.53679 9.57187 4.65868C9.51093 4.71962 9.38905 4.78057 9.38905 4.71963C9.32811 4.71963 9.26716 4.71962 9.26716 4.65868C9.20622 4.59773 9.14529 4.53678 9.08435 4.47584C9.02341 4.41489 9.0234 4.293 8.96246 4.17111C8.96246 4.04922 8.96246 3.92733 8.96246 3.86638C8.96246 3.80544 8.96246 3.6226 8.96246 3.50071C8.96246 3.31788 8.96246 3.19598 8.96246 3.13504C8.96246 2.9522 8.96246 2.70842 8.96246 2.46464C8.96246 2.22086 8.96246 2.03801 8.96246 1.91612C8.96246 1.79423 8.96246 1.6114 8.96246 1.4895C8.96246 1.30667 8.96246 1.18477 8.96246 1.12383C8.96246 1.06288 8.90154 0.940994 8.90154 0.880048C8.84059 0.819102 8.77964 0.758155 8.7187 0.697209C8.65776 0.636263 8.53588 0.636265 8.47494 0.57532C8.17024 0.514374 7.8046 0.45343 7.37802 0.45343C6.40297 0.45343 5.73261 0.514378 5.48885 0.636269C5.36697 0.697215 5.24509 0.758157 5.18415 0.880048C5.06227 1.00194 5.06226 1.06289 5.1232 1.06289C5.42791 1.12383 5.67167 1.24572 5.79356 1.42856L5.8545 1.55045C5.91544 1.6114 5.91543 1.73329 5.97637 1.91612C6.03731 2.09896 6.03731 2.2818 6.03731 2.52558C6.03731 2.89125 6.03731 3.25693 6.03731 3.50071C6.03731 3.80544 5.97637 3.98827 5.97637 4.17111C5.97637 4.35395 5.91544 4.47584 5.8545 4.53679C5.79356 4.65868 5.79355 4.71963 5.73261 4.71963C5.73261 4.71963 5.73261 4.78057 5.67167 4.78057C5.61073 4.78057 5.54979 4.84152 5.42791 4.84152C5.36697 4.84152 5.24509 4.78057 5.18415 4.71963C5.06227 4.65868 4.94039 4.53679 4.87945 4.4149C4.75756 4.29301 4.63568 4.11016 4.5138 3.86638C4.39192 3.6226 4.20909 3.37882 4.0872 3.01315L3.96533 2.76937C3.90439 2.64748 3.78251 2.40369 3.66063 2.09896C3.53875 1.79423 3.41686 1.55045 3.29498 1.24573C3.23404 1.12383 3.17311 1.06288 3.11217 1.00194H3.05122C3.05122 1.00194 2.99028 0.940997 2.92934 0.940997C2.86839 0.940997 2.80746 0.880048 2.74652 0.880048H0.552652C0.308889 0.880048 0.18701 0.940992 0.126069 1.00194L0.0651245 1.06289C0.0651245 1.06289 0.0651245 1.12383 0.0651245 1.18478C0.0651245 1.24572 0.0651282 1.30666 0.126069 1.42856C0.430772 2.1599 0.796415 2.89125 1.16206 3.6226C1.5277 4.293 1.89335 4.90246 2.13711 5.32908C2.44182 5.7557 2.68558 6.18232 2.99028 6.548C3.29498 6.91367 3.4778 7.15745 3.53874 7.27934C3.66062 7.40123 3.72156 7.46218 3.7825 7.52312L3.96533 7.70596C4.08722 7.82785 4.27003 8.01069 4.5138 8.19353C4.75756 8.37636 5.06226 8.5592 5.36696 8.74203C5.67167 8.92487 6.03732 9.04677 6.40296 9.16866C6.82955 9.29055 7.19519 9.3515 7.56083 9.29055H8.47494C8.65776 9.29055 8.77965 9.2296 8.90154 9.10771L8.96246 9.04676C8.96246 8.98582 9.02341 8.98582 9.02341 8.92487C9.02341 8.86393 9.02341 8.80299 9.02341 8.68109C9.02341 8.43731 9.02341 8.25447 9.08435 8.07164C9.14529 7.8888 9.1453 7.76691 9.20624 7.64502C9.26718 7.52313 9.32811 7.46218 9.38905 7.40123C9.44999 7.34029 9.51094 7.27934 9.51094 7.27934H9.57187C9.69375 7.2184 9.87658 7.27934 9.99846 7.40123C10.1813 7.52312 10.3641 7.70596 10.486 7.8888C10.6079 8.07164 10.7907 8.25447 11.0345 8.49826C11.2782 8.74204 11.461 8.92488 11.5829 8.98582L11.7657 9.10771C11.8876 9.16866 12.0095 9.2296 12.1923 9.29055C12.3752 9.3515 12.497 9.35149 12.6189 9.35149L14.6909 9.29055C14.8737 9.29055 15.0565 9.22961 15.1784 9.16866C15.3003 9.10772 15.3612 9.04676 15.3612 8.92487C15.3612 8.86393 15.3612 8.74204 15.3612 8.68109C15.2394 8.5592 15.2394 8.49825 15.2394 8.43731Z" fill="#BDBDBD"/>
</svg>
